<svg xmlns="http://www.w3.org/2000/svg" version="1.0" width="300" height="300"
     viewBox="0 0 300 300">

    <g id="robe">
        <path id="outer" stroke="black" stroke-width="2" fill="#464644"
              d="M 115 210 q -30 -10 -70 80 l 50 40 l 98 0 l 50 -35 l -15 -55 q -14 -30 -40 -30 L 115 210z M 85 225 q -5 20 0 90 M 225 235 l -17 29 q 5 10 10 35"/>
        <path id="inner" stroke="black" stroke-width="2" fill="#008833" d="M130 240 l 0 60 l 25 0 l 3 -60"/>
        <g id="latex-logo" transform="scale(0.65), translate(260, 370)" display="none">
            <path id="latex-logo_L" transform="scale(0.5)"
                  d="M50.618 101.811l1.231.268-4.314 13.678H8.504v-1.371h1.903c2.132 0 3.654-.697 4.568-2.08.521-.799.774-2.641.774-5.508V74.263c0-3.146-.343-5.113-1.041-5.9-.964-1.091-2.398-1.637-4.301-1.637H8.504v-1.383h22.827v1.383c-2.677-.025-4.555.216-5.634.736-1.078.52-1.814 1.18-2.208 1.979-.393.786-.596 2.689-.596 5.685v31.67c0 2.057.203 3.465.596 4.238.292.521.749.9 1.371 1.154.621.242 2.55.369 5.798.369h3.68c3.87 0 6.585-.279 8.146-.852 1.561-.57 2.982-1.586 4.276-3.031 1.282-1.445 2.576-3.742 3.858-6.863z"
                  fill="white"/>
            <path transform="scale(0.75), translate(30, 30)" fill="white" stroke="white"
                  d="M2.901 3.749c0.312 0.563 0.635 1.043 0.973 1.453h-0.005c-0.156-0.020-0.312-0.036-0.473-0.031-0.36 0-0.713 0.063-1.052 0.172 0.656 0.552 1.213 0.953 1.703 1.265 1.208 0.391 2.552 1.041 3.699 1.771 0.567 0.365 1.077 0.724 1.484 1.041 0.401 0.313 0.755 0.625 0.823 0.767 0.073 0.135 0 0.181-0.104 0.077-0.109-0.104-0.407-0.427-0.803-0.739-0.473-0.365-0.968-0.709-1.473-1.032-1.036-0.651-2.645-1.281-3.625-1.885-0.755-0.245-1.573-0.276-2.531 0.183 0.697 0.437 1.287 0.755 1.801 0.995 1.475 0.203 3.011 0.921 4.303 1.74 0.64 0.411 1.203 0.823 1.625 1.161 0.208 0.167 0.385 0.312 0.52 0.437 0.131 0.12 0.235 0.203 0.261 0.276 0.041 0.099-0.027 0.14-0.109 0.077-0.048-0.031-0.115-0.135-0.245-0.255-0.167-0.151-0.339-0.297-0.516-0.432-0.411-0.333-0.968-0.74-1.609-1.147-1.192-0.749-2.979-1.348-4.235-1.859-0.801-0.151-1.629-0.084-2.541 0.516 0.599 0.265 1.12 0.468 1.579 0.619-0.756 0.027-1.505 0.261-2.235 0.953 0.635 0.161 1.183 0.265 1.656 0.333-0.583 0.12-1.156 0.401-1.719 0.964 0.432 0.093 0.823 0.161 1.183 0.213-0.443 0.213-0.855 0.541-1.235 1.047 0.495 0.041 0.937 0.057 1.333 0.057-0.479 0.219-0.927 0.573-1.328 1.136 0.708 0.031 1.307 0.031 1.817 0-0.563 0.229-1.083 0.62-1.525 1.292 0.724 0.015 1.452-0.016 2.172-0.105l-0.011 0.005c1.323-0.099 3.068 0.167 3.953 1.131 0.067 0.079-0.032 0.156-0.1 0.099-0.859-0.776-1.989-1.104-3.853-1.229-0.724 0.199-1.396 0.595-1.948 1.433 0.713 0.009 1.307-0.016 1.817-0.063-0.625 0.339-1.156 0.859-1.516 1.739 0.647-0.12 1.188-0.255 1.652-0.391-0.485 0.355-0.891 0.849-1.161 1.595 0.432-0.1 0.812-0.199 1.156-0.297-0.344 0.421-0.579 0.927-0.683 1.464 0.469-0.177 0.875-0.344 1.235-0.511h0.005c0.375-0.308 0.943-0.609 1.719-0.828 0.672-0.193 1.443-0.38 2.197-0.401 0.109-0.005 0.219-0.005 0.328 0 0.136 0.005 0.084 0.14 0.005 0.136-0.968-0.011-1.735 0.176-2.495 0.395-0.604 0.193-1.187 0.428-1.755 0.704-0.385 0.453-0.636 1-0.735 1.583 0.656-0.26 1.197-0.515 1.645-0.755-0.411 0.443-0.724 1.016-0.844 1.807 0.663-0.287 1.303-0.615 1.923-0.989-0.579 0.484-1.021 1.125-1.172 2.115 0.823-0.349 1.609-0.776 2.355-1.271-0.245 0.495-0.376 1.073-0.313 1.797 1.016-0.781 1.661-1.407 2.141-1.964-0.037 0.396 0 0.797 0.099 1.183 0.599-1.032 1.197-1.459 1.803-1.813-0.751 0.495-0.615 0.896-0.615 1.355 0.905-0.964 2.176-1.979 2.567-2.62-0.52 0.781-0.729 1.521-0.864 2.177-2.661 1.407-4.281 1.771-6.093 2.333 0.703 0.26 1.457 0.511 1.145 0.869l-0.833 0.828c0.531-0.161 1.073-0.396 1.541-0.072-0.041 0.432-0.593 0.656-1.063 0.905 0.824-0.296 1.005-0.229 1.224-0.156 0.109 0.521-0.271 0.803-0.515 1.147 2.088-1.589 4.807-2.839 6.728-3.365 2.693-0.907 6.172-1.849 7.12-4.151 0.313-1.265 0.636-2.541 0.943-3.792-0.151-0.047-0.328-0.083-0.468-0.177-0.141-0.099-0.251-0.239-0.313-0.401-0.333 0.089-0.583 0.043-0.744-0.113-0.156-0.157-0.224-0.391-0.271-0.657-0.271 0.057-0.485 0.027-0.625-0.099-0.151-0.135-0.229-0.349-0.265-0.588l-0.005-0.057 0.047-0.021c0.151-0.052 0.287-0.14 0.401-0.255 0.077-0.084 0.115-0.193 0.093-0.303l-0.011-0.052 0.041-0.021c0.22-0.119 0.464-0.224 0.573-0.369 0.063-0.079 0.084-0.183 0.068-0.281-0.031-0.172-0.104-0.339-0.203-0.479l-0.043-0.052 0.057-0.037c0.157-0.119 0.328-0.233 0.412-0.343 0.041-0.052 0.063-0.105 0.063-0.147s-0.021-0.093-0.089-0.161l-0.129-0.125 0.181 0.011c0.281 0.011 0.527-0.011 0.72-0.073 0.161-0.041 0.301-0.151 0.389-0.296-0.004-0.032-0.004-0.068-0.004-0.099 0-0.333 0.271-0.605 0.609-0.605 0.333 0 0.604 0.272 0.604 0.605 0 0.061-0.011 0.119-0.032 0.176 0.251 0.021 0.48 0.011 0.704-0.083l0.047-0.021c0.312-0.109 0.443 0.063 0.959-0.609-2.251-2.921-5.543-0.844-6.636 2.167-0.281 0.771-1.875 0.771-2.339-0.005-1.823-3.932-7.369-8.088-12.093-9.62zM3.875 5.203c0.339-0.009 1.511 0.604 1.751 0.699 0.713 0.401 1.411 0.828 2.088 1.287 0.672 0.448 1.281 0.885 1.699 1.203 0.208 0.161 0.369 0.292 0.468 0.38 0.047 0.047 0.084 0.079 0.104 0.109 0.011 0.011 0.011 0.021 0.016 0.032 0.005 0.015 0.005 0.041-0.005 0.057-0.016 0.025-0.041 0.041-0.057 0.041-0.011 0-0.025 0-0.036 0-0.079 0-0.271-0.219-0.661-0.552-1.167-0.901-2.396-1.713-3.677-2.437-0.672-0.376-1.276-0.719-1.688-0.819zM2.355 8.921c1.083 0 2.52 0.485 3.905 1.224 1.391 0.745 2.724 1.625 3.371 2.376 0.088 0.099-0.027 0.161-0.104 0.088-0.693-0.661-1.948-1.604-3.329-2.344-0.848-0.448-2.864-1.339-3.843-1.344zM1.787 10.208c1.484 0.021 3.131 0.599 4.573 1.328 0.723 0.371 1.364 0.761 1.859 1.109 0.5 0.355 0.901 0.699 0.979 0.881 0.084 0.176-0.020 0.171-0.115 0.067-0.28-0.307-0.593-0.588-0.937-0.833-0.588-0.411-1.208-0.776-1.843-1.099-1.287-0.64-3.048-1.235-4.516-1.453zM2 11.297c0.088-0.005 0.177 0 0.265 0.009 1.099 0.095 2.297 0.485 3.38 0.996 1.448 0.676 2.715 1.541 3.245 2.224 0.047 0.057-0.016 0.176-0.104 0.083-0.573-0.588-1.76-1.511-3.199-2.183-1.213-0.563-3.041-1.161-4.348-1.041 0.249-0.031 0.5-0.079 0.76-0.088zM24.052 11.312c-0.484 0.636-0.703 0.568-0.932 0.62 0.125 0.579 0.468 0.787 0.781 1.032 2.692-0.495 5.719-0.365 8.109-0.303l-7.953-1.344zM22.984 11.973c-0.255 0.105-0.515 0.105-0.781 0.079-0.104 0.188-0.301 0.297-0.515 0.303-0.24 0-0.459-0.141-0.552-0.36-0.105 0.131-0.245 0.229-0.401 0.281-0.213 0.057-0.437 0.084-0.656 0.073 0.025 0.047 0.067 0.088 0.067 0.135 0 0.084-0.031 0.167-0.093 0.229-0.093 0.125-0.249 0.235-0.391 0.333 0.099 0.147 0.167 0.313 0.199 0.484 0.020 0.136-0.016 0.272-0.095 0.381-0.14 0.181-0.38 0.281-0.583 0.391 0.005 0.129-0.037 0.26-0.12 0.353-0.115 0.115-0.251 0.204-0.401 0.265 0.036 0.209 0.099 0.376 0.208 0.475 0.115 0.099 0.281 0.135 0.568 0.063l0.073-0.021 0.016 0.073c0.041 0.276 0.113 0.516 0.244 0.645 0.136 0.131 0.328 0.183 0.672 0.073l0.068-0.021 0.016 0.068c0.052 0.151 0.151 0.287 0.28 0.375 0.115 0.079 0.333 0.152 0.48 0.199 1.068-1.161 2.036-2.365 2.516-3.819-0.303-0.233-0.677-0.443-0.819-1.057zM1.921 12.464c1.276 0.015 2.537 0.307 3.693 0.853 1.224 0.573 2.208 1.251 2.631 1.745 0.099 0.115-0.027 0.161-0.095 0.093-0.781-0.692-1.656-1.271-2.599-1.719-1.203-0.552-2.927-0.859-4.213-0.959 0.192-0.009 0.391-0.015 0.583-0.015zM2.495 13.552c0.812 0.027 1.656 0.208 2.412 0.469 1.005 0.348 1.891 0.817 2.328 1.307 0.057 0.068-0.005 0.172-0.099 0.093-0.464-0.405-1.281-0.927-2.276-1.271-0.767-0.26-2.152-0.489-3.027-0.525 0.26-0.032 0.391-0.084 0.661-0.073zM3.688 15.927c0.067 0 0.135 0.005 0.208 0.011 0.563 0.047 1.183 0.177 1.787 0.541 0.057 0.037 0.067 0.183-0.063 0.12-1.147-0.536-1.771-0.651-3.281-0.411 0.453-0.152 0.869-0.267 1.349-0.261zM4.24 16.973c0.4 0.005 0.817 0.079 1.333 0.287 0.057 0.027 0.104 0.167-0.047 0.125-1.141-0.323-1.553-0.437-3.048 0.141 0.376-0.308 0.824-0.491 1.36-0.543 0.135-0.011 0.265-0.015 0.401-0.011zM6.188 17.88c0.208 0 0.411 0.011 0.615 0.037 0.067 0.004 0.072 0.135-0.011 0.129-0.823-0.041-1.647 0.005-2.453 0.151-0.323 0.063-0.563 0.063-1.869 0.615 0.38-0.312 1.057-0.599 1.848-0.744 0.589-0.109 1.245-0.193 1.871-0.188zM7.969 19.088c0.047-0.005 0.14 0.109 0.020 0.131-0.973 0.183-1.656 0.36-2.391 0.609-0.292 0.099-0.776 0.276-1.656 0.787 0.344-0.36 0.869-0.661 1.615-0.917 0.787-0.271 1.593-0.479 2.412-0.609zM8.38 19.765c0.099-0.016 0.136 0.115 0.032 0.136-1.625 0.317-2.349 0.739-3.391 1.525 0.672-0.697 1.728-1.4 3.359-1.661zM9.177 20.36c0.011 0 0.025 0 0.036 0 0.084 0.015 0.093 0.119-0.011 0.135-1.161 0.172-1.968 0.74-3.009 1.776 0.395-0.656 1.343-1.656 2.984-1.911zM9.672 20.88c0.063-0.005 0.151 0.099 0.031 0.136-0.255 0.072-0.577 0.197-0.891 0.4-0.244 0.157-0.405 0.272-0.801 0.677 0.151-0.328 0.401-0.577 0.729-0.787 0.328-0.213 0.676-0.389 0.932-0.427z"/>
        </g>
    </g>
    <g id="head">
        <path id="outer_bottom" stroke-width="2" stroke="black" fill="#E2E0D4"
              d="M94 100 l -15 39 q -10 14 -15 40 l 10 -9 q -3 5 0 23 q 10 19 60 53 q 10 7 25 0 q 50 -40 60 -50 q 7 -5 8 -14 l 5 6 l 18 1 q 2 -5 -7 -20 l -2 -9 q -25 2 -55 -3 q -15 6 -29 9 l -50 0 q -15 -4 -19 -7 l 23 -57 Q 105 98 94 100"/>
        <path id="inner_color" stroke-width="1" stroke="none" fill="#8D6436"
              d="M110 100 q -16 10 -25 60 l 5 0 q 15 14 19 7 l 50 0 q 14 -4 29 -9 q 27 5 55 3 l 5 -5 l 15 10 q 10 -10 -23 -37 l 15 10 q 5 -5 -20 -50 l -20 -15 L 110 100"/>
        <path id="inner_border" stroke-width="2" stroke="black" fill="none"
              d="M242 162 l 7 -5 l 15 10 q 10 -10 -23 -37 l 15 10 q 5 -5 -20 -50 l -20 -15 L 110 100"/>
        <path id="left_ear" stroke-width="2" stroke="black" fill="#8D6436"
              d="M95 90 l -24 10 l -4 21 q 5 3 20 -5 L 95 90"/>
        <path id="right_ear" stroke-width="2" stroke="black" fill="#8D6436"
              d="M200 71 l 10 -7 q 20 -5 45 -3 q 2 20 -22 30 q -5 -5 -20 -2 L 200 71"/>
        <g id="left_eye">
            <path stroke="black" stroke-width="2" fill="white"
                  d="M 100 120 q -20 18 2 31 q 16 7 29 -8 q 7 -8 0 -21 q -9 -17 -31 -2"/>
            <path stroke="black" fill="black" d="M 109 153 q 0 -21 21 -33 q 8 15 1 23 q -14 15 -23 10"/>
        </g>
        <g id="right_eye">
            <path stroke="black" stroke-width="2" fill="white"
                  d="M 161 121 q -20 18 2 31 q 16 7 29 -8 q 7 -8 0 -21 q -9 -17 -31 -2"/>
            <path stroke="black" fill="black" d="M 170 153 q 0 -21 21 -33 q 8 15 1 23 q -14 15 -23 10"/>
        </g>
        <g id="snout">
            <path id="mouth" stroke="black" fill="#BD3C4C" stroke-width="2"
                  d="M 160 183 q -5 23 -20 30 q -3 2 -9 0 q -11 -2 -16 -25 L 160 183"/>
            <path id="snout_shaft_right" stroke="black" fill="white" stroke-width="2"
                  d="M 140 167 q 40 2 11 25 q -20 9 -25 -5 l 0 -5"/>
            <path id="snout_shaft_left" stroke="black" fill="white" stroke-width="2"
                  d="M 125 180 l 0 5 q -6 11 -23 -5 q -10 -10 10 -14"/>
            <path id="nose" stroke="black" stroke-width="2" fill="black"
                  d="M 140 167 q -17 -9 -30 1 q 4 10 15 15 q 11 -5 15 -15"/>

        </g>
    </g>
    <g id="hat">
        <path id="outer_shape" stroke-width="3" stroke="black" fill="#3A3C39"
              d="M35 65 l 135 -55 q -10 27 -30 30 q 20 -3 30 -30 l 80 6 l -54 27 l 5 25 l -20 -2 l -20 9 q -20 15 -65 10 l -5 -15 l 1 -20 l 10 -10 l -10 10 l -1 20 L35 65z"/>
        <path id="lower_thing_2" stroke="black" stroke-width="2" fill="#3A3C39"
              d="M200 70 q 5 5 0 10 q -50 15 -62 30 q -20 -12 -49 -12 l 7 -7 q 15 0 39 12 q 15 -15 65 -33"/>
        <path id="lower_thing" stroke="black" stroke-width="2" fill="#3A3C39"
              d="M200 70 q -50 15 -65 33 q -20 -12 -35 -12 l 0 -5 q 45 -5 65 -15 l 15 -7 L 200 70"/>
    </g>
</svg>