<svg xmlns="http://www.w3.org/2000/svg" version="1.0" width="300.000000pt" height="300.000000pt"
     viewBox="0 0 300.000000 300.000000" preserveAspectRatio="xMidYMid meet">
    <metadata>
        Created by potrace 1.10, written by Peter Selinger 2001-2011
    </metadata>

    <g transform="translate(0.000000,300.000000) scale(0.100000,-0.100000)" fill="#000000" stroke="none">
        <path stroke="red"
              d="M1610 2882 c-163 -66 -506 -206 -715 -292 -110 -46 -228 -94 -263 -108 l-63 -24 -15 21 c-8 11 -21 21 -29 21 -16 0 -65 -56 -65 -76 0 -7 -12 -17 -27 -20 -55 -14 -113 -44 -113 -58 0 -11 17 -17 60 -22 33 -4 60 -8 60 -10 0 -2 -16 -18 -35 -36 l-35 -33 -11 -185 c-20 -362 -78 -968 -105 -1094 -13 -63 -39 -161 -51 -193 -3 -7 2 -13 10 -13 16 0 50 111 73 241 26 150 65 583 89 983 14 232 16 251 37 273 12 13 26 23 31 23 15 0 -2 -337 -23 -470 -11 -63 -24 -164 -30 -225 -6 -60 -15 -143 -21 -184 -6 -41 -12 -192 -12 -335 -2 -221 -5 -266 -19 -296 -24 -50 -31 -80 -19 -80 5 0 13 5 16 10 5 8 11 7 20 0 8 -7 23 -9 35 -5 11 4 20 2 20 -4 0 -6 5 -11 10 -11 6 0 10 6 10 13 0 17 59 21 77 5 7 -6 13 -6 13 -1 0 5 16 9 36 10 19 1 38 3 40 6 3 3 -4 92 -16 198 -30 279 -36 638 -16 1048 9 184 18 336 19 337 3 3 321 -26 322 -29 0 -1 14 -31 30 -66 43 -91 42 -93 -40 -114 -38 -9 -99 -32 -135 -50 l-65 -32 -17 -105 c-9 -58 -17 -111 -17 -119 -2 -25 121 -1 190 36 4 2 -8 -44 -27 -103 -23 -73 -52 -136 -90 -197 -30 -49 -64 -112 -75 -140 -21 -51 -39 -197 -25 -197 4 0 22 11 40 25 18 14 35 25 37 25 2 0 2 -27 1 -61 -3 -50 1 -70 24 -116 27 -56 101 -140 159 -180 l30 -21 -49 -49 c-61 -60 -121 -150 -271 -413 -174 -304 -176 -309 -132 -331 32 -17 32 -17 12 -39 -18 -19 -17 -20 2 -20 12 0 24 7 27 15 5 14 9 14 35 0 17 -8 43 -15 58 -15 23 1 14 8 -50 41 -42 23 -77 45 -77 50 0 6 12 33 26 62 29 56 273 487 283 499 3 4 4 -52 3 -125 -2 -73 1 -181 7 -242 6 -60 14 -149 17 -197 5 -65 10 -88 20 -88 17 0 17 -2 -1 200 -20 228 -20 461 1 502 21 41 93 118 110 118 8 0 95 -61 194 -136 l180 -136 0 -274 c0 -176 4 -274 10 -274 6 0 10 95 10 265 0 146 4 265 9 265 5 0 14 -7 22 -16 16 -20 150 -17 193 3 l28 15 -6 -39 c-3 -21 -8 -114 -11 -208 -3 -93 -8 -196 -11 -227 -5 -48 -3 -58 9 -58 20 0 25 45 33 317 l6 223 187 152 c102 83 191 155 197 160 18 13 144 -51 191 -98 23 -23 46 -58 52 -78 11 -42 1 -79 -68 -236 l-42 -95 11 -130 c16 -196 19 -215 36 -215 10 0 13 7 10 23 -3 12 -10 89 -17 170 l-11 148 46 102 c25 56 50 116 57 132 10 26 13 27 16 10 8 -36 74 -267 114 -398 21 -71 39 -132 39 -136 0 -5 -21 -18 -47 -29 l-48 -21 48 -1 c26 0 47 5 47 10 0 6 9 10 20 10 11 0 20 2 20 6 0 3 -22 78 -49 167 -27 89 -68 230 -91 312 -24 83 -53 170 -65 195 -30 60 -95 118 -173 154 -34 16 -62 32 -62 35 1 3 32 28 70 55 92 64 156 129 171 171 12 33 14 34 31 18 10 -9 18 -22 18 -30 0 -7 5 -13 10 -13 6 0 10 6 10 14 0 12 13 14 67 11 36 -3 75 -7 86 -11 19 -6 20 -3 14 42 -3 27 -22 83 -42 125 -20 42 -37 89 -38 104 -2 24 3 30 29 38 27 8 37 4 90 -33 48 -34 58 -46 56 -66 -2 -13 -1 -24 3 -24 14 0 65 97 65 125 0 39 -43 108 -103 163 -26 23 -47 45 -47 48 0 3 14 3 30 -1 17 -4 30 -4 30 -1 0 3 -16 27 -37 53 -20 27 -72 122 -117 213 -44 91 -82 168 -84 172 -2 3 6 4 17 1 47 -12 121 44 121 92 0 13 11 30 25 39 41 27 56 69 53 144 l-3 67 -180 -3 c-183 -2 -274 -16 -323 -48 -17 -11 -23 -12 -26 -2 -2 7 -16 55 -30 107 -15 52 -24 97 -19 101 4 4 109 56 233 116 305 146 330 162 278 184 -13 5 -169 18 -348 30 -179 11 -350 23 -380 25 -47 4 -69 -1 -150 -33z m67 -84 c-56 -79 -81 -102 -187 -172 -47 -31 -81 -56 -76 -56 4 0 36 13 71 30 77 37 149 100 217 192 l52 70 65 -6 c37 -3 111 -9 166 -12 348 -23 439 -31 420 -39 -11 -4 -120 -57 -242 -116 -170 -82 -223 -112 -223 -126 0 -10 14 -63 30 -118 16 -55 30 -103 30 -107 0 -4 -51 -8 -112 -10 -113 -4 -113 -4 -283 -72 -154 -61 -183 -69 -305 -86 -74 -10 -172 -21 -217 -25 l-81 -7 -35 75 c-19 41 -38 77 -43 80 -5 3 -9 46 -8 96 l1 90 39 44 c21 24 55 51 74 59 19 9 172 71 340 138 168 68 314 129 324 136 35 24 30 6 -17 -58z m-747 -275 c-51 -45 -52 -47 -45 -89 3 -25 1 -61 -6 -85 l-13 -41 -60 5 c-34 4 -100 9 -148 13 l-88 7 0 28 c0 34 2 35 195 114 77 31 156 65 175 76 19 10 37 18 39 19 2 0 -20 -21 -49 -47z m-398 -59 c4 -3 0 -17 -8 -32 -8 -15 -14 -44 -14 -64 0 -48 -17 -91 -31 -82 -16 10 -5 128 15 159 16 25 27 30 38 19z m36 -48 c-12 -9 -18 -27 -18 -52 0 -22 -4 -34 -9 -28 -14 15 -1 82 18 87 26 7 27 7 9 -7z m1967 -87 c0 -70 -22 -104 -83 -131 -39 -18 -56 -20 -121 -13 -42 5 -110 8 -151 9 l-75 1 5 -35 c3 -19 5 -71 5 -115 0 -75 -1 -80 -22 -83 -14 -2 -36 10 -61 32 -33 30 -44 35 -71 30 -27 -6 -36 -1 -72 35 -45 45 -62 48 -35 6 23 -34 74 -65 110 -65 15 0 41 -11 58 -25 16 -14 41 -28 55 -31 43 -11 58 6 61 74 3 57 5 62 28 68 14 4 46 4 72 0 64 -8 93 -43 166 -205 33 -72 77 -153 98 -181 35 -46 36 -50 16 -50 -12 0 -40 19 -65 46 -25 25 -47 43 -50 40 -9 -8 40 -68 104 -128 96 -91 133 -144 133 -192 0 -69 -14 -71 -86 -15 l-63 49 -41 -15 c-23 -8 -45 -17 -50 -20 -13 -8 8 -81 44 -159 19 -39 37 -84 41 -100 5 -26 4 -28 -17 -22 -13 3 -53 6 -90 6 -64 0 -67 1 -87 33 -12 18 -21 25 -21 16 0 -8 -12 -38 -26 -66 -20 -42 -45 -67 -127 -130 -56 -42 -183 -143 -282 -223 -308 -250 -293 -240 -371 -240 l-67 0 -271 203 c-360 270 -391 306 -390 447 0 44 6 85 14 100 10 19 2 15 -35 -18 -54 -48 -67 -52 -61 -19 3 12 8 40 11 61 8 48 35 105 104 217 38 63 61 116 85 200 18 63 43 135 55 161 11 26 21 51 21 57 0 6 5 22 12 36 11 25 14 26 67 20 31 -4 64 -9 75 -12 11 -3 16 -1 12 5 -4 6 9 8 36 5 91 -10 140 -26 191 -64 58 -44 49 -46 139 33 71 61 213 149 224 138 5 -5 28 -1 54 11 37 17 48 18 68 7 18 -9 25 -9 31 0 8 13 142 77 184 87 21 6 27 13 27 36 0 17 -8 33 -20 42 -16 11 -18 16 -8 24 24 19 93 51 128 58 36 8 290 23 350 21 l35 -1 0 -56z m-1989 -151 c-26 -536 -30 -1071 -10 -1367 4 -59 3 -81 -5 -77 -6 4 -12 42 -13 89 l-2 82 -3 -72 c-3 -54 -8 -73 -18 -73 -7 0 -16 -6 -18 -12 -3 -7 -6 5 -7 27 l-2 40 -8 -33 c-8 -36 -20 -54 -20 -31 0 8 5 42 10 76 6 34 12 201 15 370 3 169 9 333 14 363 8 43 9 26 6 -80 -3 -88 -1 -130 5 -120 7 10 10 -13 12 -75 1 -49 5 34 9 185 16 672 23 840 32 840 6 0 7 -49 3 -132z m1441 115 c-4 -3 -49 -17 -99 -30 -125 -31 -370 -153 -460 -227 l-67 -56 -33 20 c-44 25 -191 67 -267 76 -42 4 -61 11 -61 20 0 10 14 14 48 14 26 0 126 11 222 24 161 22 186 28 318 80 78 30 155 62 170 70 19 11 59 15 131 16 57 0 101 -3 98 -7z m30 -56 c-3 -8 -18 -18 -34 -21 -15 -4 -57 -21 -92 -38 -41 -19 -66 -27 -73 -20 -6 6 -30 -1 -69 -19 -65 -32 -73 -34 -64 -19 25 41 -183 -82 -267 -158 -37 -34 -58 -38 -41 -9 48 84 406 266 608 309 25 6 39 -6 32 -25z m-1502 -34 c-3 -16 -10 -104 -15 -198 -6 -93 -22 -282 -35 -420 -17 -172 -25 -314 -25 -455 0 -270 -23 -420 -65 -420 -18 0 -18 5 -4 50 6 20 15 169 19 345 8 305 43 756 57 741 3 -2 -2 -76 -11 -164 -17 -171 -21 -285 -6 -182 18 119 41 501 38 613 l-3 117 27 0 c24 0 27 -3 23 -27z m1831 -39 c46 -4 79 -2 93 5 17 10 21 9 21 -3 0 -28 -49 -73 -92 -84 -36 -9 -45 -8 -66 9 -30 23 -152 28 -152 7 -1 -21 -17 13 -24 51 l-6 33 78 -6 c42 -3 109 -8 148 -12z m-1428 -111 c-42 -17 -54 -53 -18 -53 11 0 20 -2 20 -4 0 -11 -45 -123 -54 -135 -27 -35 -177 -81 -176 -53 1 4 6 45 13 92 12 80 15 85 46 104 48 28 151 65 181 65 21 0 19 -2 -12 -16z m182 -8 c134 -28 218 -56 242 -83 23 -25 14 -23 -32 8 -45 30 -163 52 -290 54 -120 1 -134 6 -70 24 50 14 66 14 150 -3z m-537 -1235 c4 -52 3 -75 -3 -60 -8 24 -14 158 -6 149 2 -2 6 -42 9 -89z"/>
        <path d="M1593 2040 c-35 -22 -63 -43 -63 -46 0 -9 92 45 115 67 29 28 17 23 -52 -21z"/>
        <path d="M1060 1911 c-11 -23 -16 -41 -10 -41 12 0 44 69 36 77 -2 3 -14 -13 -26 -36z"/>
        <g id="right_eye">
            <path stroke="black" stroke-width="24" fill="none"
                  d="M 1950 1731 q -48 120 -120 132 t -216 -108 t -48 -240 t 252 -36 t 132 252 z"/>
            <path d="M 1915 1796 Q 1682 1620 1754 1456 Q 1773 1454 1815 1479 Q 2023 1603 1916 1794 z"/>
        </g>
        <g id="left_eye">
            <path stroke="black" stroke-width="24" fill="none"
                  d="M 1321 1744 q -48 120 -120 132 t -216 -108 t -48 -240 t 252 -36 t 132 252 z"/>
            <path d="M 1315 1796 q -233 -176 -161 -340 q 19 -2 61 23 q 208 124 101 315 z"/>
        </g>
        <path d="M911 1475 c-13 -36 -27 -68 -32 -71 -17 -10 -9 -24 16 -24 13 0 45 -7 71 -16 64 -22 69 -8 6 18 -29 12 -52 27 -52 32 0 6 7 29 15 51 16 45 19 75 7 75 -5 0 -19 -29 -31 -65z"/>
        <path d="M1870 1442 c-8 -3 17 -12 55 -19 91 -19 445 -29 445 -14 0 13 20 12 -190 16 -96 1 -191 8 -210 14 -37 12 -76 13 -100 3z"/>
        <path d="M1202 1414 c-65 -17 -79 -25 -152 -80 -82 -62 -90 -93 -40 -161 31 -42 133 -103 171 -103 12 0 21 -10 24 -27 23 -109 54 -175 92 -192 34 -16 99 -14 133 4 37 19 101 103 134 175 37 81 68 223 56 255 -23 60 -104 109 -217 131 -91 17 -132 17 -201 -2z m94 -13 c-3 -5 -27 -12 -53 -16 -26 -4 -64 -14 -86 -22 -41 -17 -62 -12 -28 6 49 26 179 51 167 32z m250 -66 c71 -54 69 -109 -4 -187 -77 -82 -154 -107 -239 -76 -26 9 -33 18 -33 38 0 14 -3 34 -6 45 -4 15 3 25 23 37 43 25 123 110 130 137 3 13 1 32 -6 42 -6 10 -11 21 -11 23 0 11 116 -36 146 -59z m-176 35 c8 -15 7 -27 -5 -49 -14 -29 -98 -101 -117 -101 -20 0 -88 41 -102 62 -26 37 -19 45 52 64 37 9 78 23 92 30 37 19 68 17 80 -6z m-280 -76 c0 -23 74 -91 114 -104 32 -10 36 -15 36 -46 0 -48 -1 -49 -44 -46 -51 4 -132 47 -162 88 -33 43 -31 76 7 108 31 26 49 27 49 0z m456 -235 c-40 -85 -93 -151 -134 -168 -48 -20 -112 -10 -135 20 -19 26 -19 29 -3 77 l17 51 67 -6 c79 -6 124 11 181 71 19 20 36 34 38 32 3 -2 -11 -37 -31 -77z m-276 5 c0 -3 -5 -26 -12 -52 -12 -46 -12 -46 -19 -17 -13 58 -10 75 11 75 11 0 20 -3 20 -6z"/>
        <path d="M1366 1004 c-3 -9 -6 -25 -6 -37 1 -17 2 -19 9 -7 16 27 22 60 13 60 -6 0 -13 -7 -16 -16z"/>
        <path d="M1701 1390 c-41 -10 -79 -24 -84 -29 -18 -18 34 -13 104 9 126 39 112 53 -20 20z"/>
        <path d="M307 974 c-11 -109 -31 -191 -52 -215 -18 -19 -18 -20 2 -39 22 -20 40 -12 41 20 0 8 5 47 11 85 7 39 11 107 9 150 l-3 80 -8 -81z"/>
    </g>
    <g id="hat">
        <path id="outer_shape" stroke-width="3" stroke="black" fill="#3A3C39"
              d="M35 65 l 135 -55 q -10 27 -30 30 q 20 -3 30 -30 l 80 6 l -54 27 l 5 25 l -20 -2 l -20 9 q -20 15 -65 10 l -5 -15 l 1 -20 l 10 -10 l -10 10 l -1 20 L35 65z"/>
        <path id="lower_thing_2" stroke="black" stroke-width="2" fill="#3A3C39"
              d="M200 70 q 5 5 0 10 q -50 15 -62 30 q -20 -12 -49 -12 l 7 -7 q 15 0 39 12 q 15 -15 65 -33"/>
        <path id="lower_thing" stroke="black" stroke-width="2" fill="#3A3C39"
              d="M200 70 q -50 15 -65 33 q -20 -12 -35 -12 l 0 -5 q 45 -5 65 -15 l 15 -7 L 200 70"/>
    </g>
    <g id="head">
        <path id="outer_bottom" stroke-width="1" stroke="black" fill="none"
              d="M94 100 l -15 39 q -10 14 -15 40 l 10 -9 q -3 5 0 23 q 10 19 60 53 q 10 7 25 0 q 50 -40 60 -50 q 7 -5 8 -14 l 5 6 l 18 1 q 2 -5 -7 -20 l -2 -9 q -25 2 -55 -3 q -15 6 -29 9 l -50 0 q -15 -4 -19 -7 l 23 -57 Q 105 98 94 100"/>
        <path id="left_ear" stroke-width="2" stroke="black" fill="#8D6436"
              d="M95 90 l -24 10 l -4 21 q 5 3 20 -5 L 95 90"/>
        <path id="right_ear" stroke-width="2" stroke="black" fill="#8D6436"
              d="M200 71 l 10 -7 q 20 -5 45 -3 q 2 20 -22 30 q -5 -5 -20 -2 L 200 71"/>
    </g>
</svg>