<svg data-v-632e0e1a="" width="500" height="500" viewBox="-250 -250 500 500" xmlns="http://www.w3.org/2000/svg"
     class="smallIcon top">
    <g transform="scale(1) rotate(-10, 0, 0) translate(0 0)">
        <path stroke="black" stroke-width="10" fill="white"
              d="M -140 -200 L 140 -200 L 140 200 L -140 200 A40,40 0 0 1 -180 160 L -180 -160 A40,40 0 0 1 -140 -200 z"></path>
        <path stroke="black" stroke-width="10" fill="white"
              d="M 40 -200 L 40 -120 L 70 -150 L 100 -120 L 100 -200 z"></path>
        <path stroke="black" stroke-width="10" fill="white" d="M -140 -200 L -140 200 z"></path>
        <path stroke="black" stroke-width="10" fill="white"
              d="M 0 -100 A40,40 0 0 1 40 -60 A40,40 0 0 1 0 -20 A40,40 0 0 1 -40 -60 A40,40 0 0 1 0 -100 z"></path>
        <path stroke="black" stroke-width="10" fill="white" d="M -100 70 L 100 70 z"></path>
        <path stroke="black" stroke-width="10" fill="white" d="M -100 100 L 100 100 z"></path>
        <path stroke="black" stroke-width="10" fill="white" d="M -100 130 L 100 130 z"></path>
    </g>
    <g transform="scale(1) rotate(0, 0, 0) translate(0 0)">
        <path stroke="black" stroke-width="10" fill="white" d="M 90 5 L 90 55 A50,20 0 0 0 210 55 L 210 5 z"></path>
        <path stroke="black" stroke-width="10" fill="white" d="M 50 -20 L 150 -70 L 250 -20 L 150 30 L 50 -20 z"></path>
        <path stroke="black" stroke-width="10" fill="white"
              d="M 230 -10 L 230 15 A5,5 0 0 0 230 25 A5,5 0 0 0 230 15 L 230 40 z"></path>
    </g>
</svg>